<?xml version="1.0" standalone="no"?>
<!DOCTYPE svg PUBLIC "-//W3C//DTD SVG 20010904//EN"
 "http://www.w3.org/TR/2001/REC-SVG-20010904/DTD/svg10.dtd">
<svg version="1.0" xmlns="http://www.w3.org/2000/svg"
 width="300.000000pt" height="300.000000pt" viewBox="0 0 300.000000 300.000000"
 preserveAspectRatio="xMidYMid meet">
<metadata>
Created by potrace 1.14, written by Peter Selinger 2001-2017
</metadata>
<g transform="translate(0.000000,300.000000) scale(0.100000,-0.100000)"
fill="#000000" stroke="none">
<path d="M0 1500 l0 -1500 1046 0 1045 0 -2 28 c-1 15 0 36 4 47 4 11 3 35 -2
52 -7 25 -6 31 4 27 7 -3 18 -25 24 -49 14 -57 14 -75 0 -55 -8 12 -9 10 -4
-9 5 -16 4 -21 -4 -17 -6 4 -11 0 -11 -8 0 -21 16 -20 24 0 5 12 9 14 20 5 10
-9 9 5 -5 56 -10 36 -17 68 -15 71 2 2 18 -3 34 -12 26 -13 31 -14 36 -1 3 8
1 17 -4 20 -6 4 -10 11 -10 16 0 6 4 8 9 5 15 -10 20 22 5 34 -8 7 -14 18 -14
24 0 16 99 -86 100 -104 0 -8 5 -22 10 -30 19 -28 -2 43 -24 79 -22 37 -12 36
33 -3 l24 -21 -13 25 c-10 21 -10 23 1 13 7 -7 22 -13 33 -13 16 0 15 3 -10
25 -16 14 -35 23 -41 20 -7 -2 -13 2 -13 11 0 8 -19 23 -42 34 -24 10 -35 19
-25 19 10 1 27 -4 38 -9 17 -10 19 -8 13 25 -4 25 -1 35 8 35 8 1 5 8 -8 18
-18 15 -19 21 -9 35 7 10 19 15 27 12 9 -4 14 1 14 15 0 13 -7 20 -18 20 -10
0 -18 5 -18 12 0 6 -3 8 -6 5 -4 -4 -1 -13 6 -22 8 -10 9 -15 1 -15 -6 0 -11
-7 -11 -16 0 -14 -1 -14 -16 0 -8 9 -20 16 -25 16 -5 0 -9 4 -9 9 0 5 9 7 20
4 21 -5 25 3 14 31 -8 20 -24 21 -24 1 0 -10 -9 -14 -30 -12 -26 2 -28 4 -14
14 11 8 14 19 9 34 -6 17 -4 21 8 16 10 -4 14 -1 11 7 -3 7 11 20 33 30 31 15
35 19 21 27 -16 9 -16 11 0 39 9 16 19 30 22 30 8 0 50 -65 50 -77 0 -7 12
-13 28 -15 16 -2 27 -9 27 -18 1 -37 18 -81 38 -95 32 -22 37 -19 37 21 0 31
-2 35 -14 25 -12 -10 -18 -6 -32 21 l-17 33 22 -20 22 -19 -7 28 c-5 22 -4 28
7 24 8 -3 15 -14 17 -26 2 -12 12 -27 22 -32 10 -5 42 -52 71 -102 62 -111
113 -162 101 -103 -5 29 -1 30 41 11 18 -8 41 -16 52 -18 17 -3 20 -11 20 -63
l0 -60 80 -7 c44 -3 99 -9 123 -13 l42 -8 0 96 c0 88 -2 96 -17 90 -10 -3 -26
-14 -36 -25 -19 -19 -44 -23 -65 -9 -10 6 -8 10 11 15 41 10 40 41 -5 91 -22
25 -44 43 -48 40 -4 -2 -10 -25 -13 -50 -6 -58 -14 -66 -37 -37 -10 12 -23 22
-29 22 -6 0 -11 6 -11 14 0 7 -13 38 -29 68 -17 31 -27 58 -24 62 4 3 1 6 -5
6 -7 0 -12 7 -12 16 0 13 -3 14 -13 5 -19 -15 -27 -4 -22 33 l5 31 -12 -27
c-7 -16 -16 -28 -21 -28 -4 0 -5 -5 -2 -10 4 -6 1 -18 -6 -26 -10 -12 -14 -12
-27 7 -10 15 -13 36 -9 75 3 32 2 52 -4 49 -5 -4 -5 4 0 19 8 18 6 26 -5 30
-9 3 -14 1 -12 -7 2 -7 -1 -14 -7 -15 -5 -1 -11 10 -13 24 -3 21 -6 24 -13 13
-7 -11 -9 -11 -9 4 0 10 4 26 9 35 9 18 -13 56 -34 59 -20 3 -16 31 9 59 25
29 25 29 26 6 0 -16 -4 -21 -12 -16 -7 4 -9 3 -5 -1 20 -22 32 -11 30 28 -1
27 5 46 18 60 10 11 16 24 13 28 -3 5 -7 19 -9 30 -3 12 -12 30 -22 41 -26 29
-24 46 4 46 17 0 21 -4 14 -11 -14 -14 -14 -27 -1 -27 6 0 10 8 10 18 0 10 12
-1 30 -28 16 -25 30 -38 30 -29 0 9 -19 38 -42 65 -24 26 -37 44 -30 40 9 -6
12 -3 10 10 -4 27 -22 36 -30 16 -7 -14 -7 -14 -5 3 2 11 9 19 18 17 52 -13
53 -13 34 8 -11 12 -15 26 -11 37 6 15 9 15 17 3 9 -12 10 -12 5 3 -3 10 -6
21 -6 23 0 2 -8 4 -17 4 -15 0 -14 2 3 15 18 14 18 14 0 15 -13 0 -16 3 -9 13
11 14 -2 77 -16 77 -5 0 -12 7 -15 16 -3 8 -2 12 4 9 6 -3 10 -1 10 4 0 6 -4
11 -9 11 -14 0 -20 38 -7 44 6 3 2 4 -9 1 -17 -4 -21 0 -20 22 1 16 -7 40 -18
56 -10 15 -16 27 -13 27 3 0 -9 15 -27 33 -18 18 -37 31 -44 29 -7 -2 -10 4
-7 16 3 10 -7 39 -23 65 -21 36 -32 45 -47 41 -12 -4 -16 -2 -12 5 4 6 1 11
-8 11 -8 0 -23 3 -33 6 -10 3 -8 -1 6 -9 18 -11 20 -16 10 -20 -10 -4 -9 -6 4
-6 10 -1 16 -5 12 -10 -3 -5 5 -17 17 -25 12 -9 16 -16 9 -16 -11 0 -11 -3 0
-16 12 -14 11 -16 -6 -12 -11 2 -19 10 -17 16 1 7 -6 12 -17 12 -24 0 -23 -33
2 -40 10 -3 18 -9 17 -14 -1 -5 5 -13 14 -18 9 -5 16 -15 16 -23 0 -8 8 -19
18 -24 9 -6 11 -11 5 -11 -7 0 -18 9 -25 20 -7 11 -21 20 -31 20 -10 0 -16 -4
-12 -9 3 -5 -3 -11 -12 -14 -15 -3 -13 -6 9 -17 28 -13 46 -40 27 -40 -6 0
-20 5 -32 12 -20 10 -21 10 -9 -5 14 -16 8 -42 -8 -32 -4 3 -10 -1 -13 -9 -6
-14 48 -59 73 -61 47 -4 57 -7 79 -24 l24 -18 -26 0 c-15 0 -25 3 -22 7 9 15
-44 30 -71 20 -22 -9 -31 -6 -56 15 -16 14 -24 25 -18 25 6 0 8 4 5 10 -3 5
-13 10 -21 10 -8 0 -12 -4 -9 -10 3 -5 0 -10 -7 -11 -7 0 1 -7 17 -15 29 -14
29 -15 4 -11 -21 3 -25 0 -21 -15 2 -10 7 -16 11 -14 4 3 13 1 21 -5 13 -7 12
-9 -2 -9 -11 0 -16 -6 -13 -19 3 -14 -1 -18 -11 -14 -9 3 -12 0 -9 -9 3 -7 17
-15 31 -16 22 -2 24 1 19 19 -5 14 -3 20 5 17 6 -2 11 -7 10 -12 -1 -4 11 -21
26 -37 31 -33 25 -40 -7 -8 -22 22 -39 19 -20 -5 8 -10 9 -16 1 -21 -6 -4 -9
-1 -8 5 2 7 -5 14 -14 15 -13 2 -18 -4 -18 -22 0 -18 4 -24 15 -19 14 5 20
-15 16 -51 -1 -7 3 -22 9 -33 6 -11 8 -20 6 -20 -6 0 -36 56 -37 67 0 5 -8 17
-18 28 -9 11 -23 32 -31 48 -7 15 -17 27 -22 27 -11 0 -10 -18 2 -25 6 -3 10
-13 10 -22 0 -13 -3 -13 -15 -3 -8 7 -15 19 -15 26 0 8 -7 14 -17 14 -20 0
-11 10 14 15 10 2 20 4 22 4 2 1 -4 11 -15 23 -19 21 -19 21 4 16 12 -4 20 -2
16 3 -3 5 -1 9 5 9 5 0 13 -4 16 -10 3 -5 11 -10 16 -10 17 0 -2 21 -28 31
-13 5 -21 14 -18 20 4 6 0 9 -10 7 -11 -2 -19 4 -20 14 -3 14 3 17 28 14 28
-3 29 -3 13 9 -10 8 -26 12 -37 10 -19 -4 -65 42 -54 54 4 3 10 0 14 -7 6 -10
11 -10 21 3 11 13 10 15 -3 10 -20 -8 -33 15 -16 27 11 8 10 9 -3 5 -9 -3 -22
1 -30 10 -11 15 -10 16 12 10 24 -6 24 -6 -4 18 -25 21 -26 25 -10 25 18 1 18
1 -1 12 -45 26 -52 70 -18 109 11 14 12 18 1 22 -10 4 -10 8 2 16 8 6 10 11 4
11 -7 0 -9 11 -6 27 3 17 -1 30 -12 39 -11 8 -13 14 -7 19 8 4 6 11 -4 21 -8
9 -13 20 -10 25 4 5 1 9 -5 9 -6 0 -8 5 -5 10 4 6 1 17 -5 25 -6 8 -9 19 -5
24 3 6 -3 16 -15 23 -11 7 -20 21 -20 30 0 11 -8 18 -20 18 -11 0 -20 -5 -20
-11 0 -5 4 -7 10 -4 14 9 12 -4 -3 -19 -10 -11 -15 -11 -24 0 -10 10 -10 14 0
18 9 3 8 8 -4 18 -9 7 -14 20 -11 28 4 13 3 13 -11 2 -14 -12 -15 -10 -7 19 5
17 7 29 4 26 -3 -3 -15 4 -26 15 -14 14 -27 18 -45 13 -18 -4 -23 -2 -17 6 5
8 3 9 -5 5 -7 -5 -18 -1 -25 10 -8 11 -27 18 -50 18 -20 1 -36 4 -36 9 0 4 -5
7 -11 7 -6 0 -8 -8 -5 -17 6 -17 5 -17 -7 -1 -13 17 -66 18 -187 5 -97 -11
-238 -45 -298 -73 -18 -8 -38 -13 -45 -10 -8 3 -7 5 2 5 8 1 22 7 30 15 22 18
128 53 170 55 19 1 40 9 48 19 12 16 13 16 6 -2 -6 -18 -5 -18 23 2 30 22 66
28 199 37 46 3 82 11 87 18 4 6 8 8 8 3 0 -5 7 -3 15 4 12 10 15 9 15 -5 0
-11 5 -15 14 -12 15 6 30 -19 21 -34 -3 -4 6 -11 20 -15 14 -3 25 -10 25 -16
0 -5 4 -6 10 -3 5 3 22 -1 37 -8 51 -26 102 -30 131 -11 l27 17 -20 -22 c-22
-26 -13 -36 43 -47 19 -4 36 -13 39 -20 3 -8 12 -14 20 -14 8 0 11 -4 8 -10
-3 -5 -1 -10 4 -10 6 0 28 -16 48 -35 26 -25 44 -34 58 -31 18 5 19 4 3 -8
-16 -12 -16 -14 3 -34 11 -12 24 -22 29 -22 6 0 10 -6 10 -13 0 -7 18 -24 41
-36 22 -13 43 -30 47 -40 3 -9 13 -23 21 -31 13 -13 14 -13 9 6 -7 29 8 56 18
31 3 -9 10 -14 15 -11 5 3 5 13 -1 25 -13 24 -7 24 16 2 16 -16 16 -16 10 5
-10 30 -2 28 41 -13 54 -51 101 -44 56 8 -10 11 -12 17 -5 13 6 -4 12 -2 12 3
0 6 7 11 15 11 21 0 19 17 -5 42 -20 22 -20 22 0 43 12 12 18 30 15 43 -2 12
1 22 7 22 6 0 3 9 -7 20 -18 19 -17 20 2 20 27 0 34 9 21 30 -9 14 -9 22 1 34
11 14 11 16 -5 16 -11 0 -26 5 -34 10 -13 8 -12 12 7 25 14 10 19 22 16 35 -5
17 -1 19 27 16 19 -2 40 -13 50 -26 21 -28 54 -23 58 9 5 35 -36 107 -85 151
-24 21 -43 43 -43 50 0 8 -3 10 -6 7 -4 -3 -24 16 -46 43 -22 28 -44 50 -48
50 -5 0 -23 13 -39 28 -31 28 -147 92 -166 92 -6 0 -22 11 -37 25 -15 14 -32
25 -38 25 -18 0 -55 33 -55 50 0 8 -12 17 -26 20 -23 4 -25 8 -18 28 10 26 22
28 43 7 8 -8 18 -15 22 -15 4 0 15 -6 23 -14 9 -8 23 -16 31 -18 8 -2 29 -12
45 -24 17 -11 47 -29 68 -39 21 -10 45 -29 54 -41 8 -13 22 -24 30 -24 7 0 35
-19 61 -43 26 -24 61 -55 79 -69 30 -24 81 -83 161 -185 17 -23 32 -49 32 -57
0 -8 6 -19 13 -23 6 -4 12 -24 13 -43 1 -19 11 -60 24 -90 32 -79 51 -132 56
-154 5 -25 69 -175 106 -251 62 -124 58 -167 58 598 l0 697 -1500 0 -1500 0 0
-1500z m1950 1330 c0 -5 -5 -10 -11 -10 -5 0 -7 5 -4 10 3 6 8 10 11 10 2 0 4
-4 4 -10z m65 0 c4 -6 10 -8 14 -6 4 3 8 -1 8 -8 0 -11 -7 -12 -29 -4 -15 6
-28 14 -28 19 0 12 27 11 35 -1z m-1095 -213 c0 -4 -9 -3 -20 3 -11 6 -20 15
-20 20 0 6 9 5 20 -2 11 -7 20 -16 20 -21z m1533 -126 c-5 -19 -43 -37 -43
-20 0 5 7 9 15 9 12 0 13 4 5 19 -15 28 -13 33 9 21 12 -6 17 -17 14 -29z m37
-27 c0 -2 -7 -4 -15 -4 -8 0 -15 4 -15 10 0 5 7 7 15 4 8 -4 15 -8 15 -10z
m20 -34 c-9 -6 -9 -9 1 -12 8 -3 11 -9 7 -13 -9 -10 -50 24 -43 35 3 5 14 6
26 3 14 -4 17 -8 9 -13z m-101 -17 c-4 -23 4 -29 36 -25 27 3 35 1 35 -11 0
-9 8 -22 19 -29 27 -19 36 -55 14 -55 -22 0 -55 26 -47 38 5 9 -31 50 -39 43
-6 -7 -67 17 -67 27 0 4 7 6 15 3 8 -4 15 -1 15 5 0 6 5 11 10 11 6 0 9 -3 9
-7z m151 -18 c10 -12 10 -19 1 -28 -9 -9 -14 -9 -21 3 -22 34 -4 54 20 25z
m-127 -153 c-2 -12 3 -22 9 -22 22 0 -6 -17 -39 -23 -22 -4 -33 -2 -37 8 -6
16 9 29 24 20 6 -4 10 5 10 20 0 20 4 26 18 23 11 -3 16 -12 15 -26z m437 -82
c0 -5 -4 -10 -10 -10 -5 0 -10 5 -10 10 0 6 5 10 10 10 6 0 10 -4 10 -10z
m-1063 -42 c-3 -8 -6 -5 -6 6 -1 11 2 17 5 13 3 -3 4 -12 1 -19z m1108 -55
c12 -43 11 -50 -6 -67 -10 -11 -22 -17 -26 -12 -4 4 -1 11 7 16 14 8 12 25
-15 120 -7 24 -7 24 10 8 10 -9 23 -38 30 -65z m-951 -82 c3 -5 -2 -17 -12
-28 -9 -10 -14 -14 -10 -9 4 5 3 17 -3 28 -7 14 -6 18 5 18 8 0 17 -4 20 -9z
m353 2 c-20 -2 -52 -2 -70 0 -17 2 0 4 38 4 39 0 53 -2 32 -4z m-7 -503 c0 -5
6 -10 13 -10 7 0 21 -6 31 -13 16 -12 13 -13 -23 -12 -22 0 -43 4 -47 8 -4 4
-2 7 4 7 6 0 9 7 6 15 -4 8 -1 15 5 15 6 0 11 -4 11 -10z m-215 -40 c3 -6 -1
-7 -9 -4 -18 7 -21 14 -7 14 6 0 13 -4 16 -10z m280 -20 c3 -5 2 -10 -4 -10
-5 0 -13 5 -16 10 -3 6 -2 10 4 10 5 0 13 -4 16 -10z m-290 -10 c3 -5 2 -10
-4 -10 -5 0 -13 5 -16 10 -3 6 -2 10 4 10 5 0 13 -4 16 -10z m208 -35 c15 -1
27 2 27 7 0 5 5 6 10 3 16 -10 0 -27 -21 -22 -22 6 -19 0 21 -53 36 -48 46
-65 32 -56 -14 8 -14 -1 -2 -29 5 -11 9 -14 9 -7 1 16 41 -23 41 -40 0 -7 -7
-3 -15 9 -23 33 -44 20 -35 -23 4 -19 4 -34 -1 -34 -9 0 -13 15 -9 39 1 8 -2
17 -7 20 -4 3 -17 17 -28 31 l-20 25 29 -25 c26 -22 28 -23 22 -5 -9 22 -14
44 -15 61 -1 6 -13 24 -28 39 -16 15 -28 32 -28 37 0 5 -11 16 -25 25 -16 9
-18 12 -5 7 11 -3 32 -7 48 -9z m128 -46 c16 -25 10 -33 -11 -14 -19 17 -20
17 -20 -1 0 -16 -2 -17 -10 -4 -6 10 -6 16 0 18 6 2 8 7 5 12 -3 5 2 7 11 6 8
-1 20 -9 25 -17z m-25 -61 l29 -33 -32 29 c-18 17 -33 31 -33 33 0 8 8 1 36
-29z m161 26 c-3 -3 -12 -4 -19 -1 -8 3 -5 6 6 6 11 1 17 -2 13 -5z m-33 -52
c3 -5 -1 -9 -9 -9 -8 0 -15 4 -15 9 0 4 4 8 9 8 6 0 12 -4 15 -8z m15 -35 c8
-10 7 -14 -4 -14 -8 0 -15 6 -15 14 0 7 2 13 4 13 2 0 9 -6 15 -13z m-395 -26
c-2 -3 -12 3 -22 13 -16 17 -16 18 5 5 12 -7 20 -15 17 -18z m1 -32 c20 -18
33 -34 31 -37 -3 -3 -14 6 -25 19 -24 28 -26 16 -7 -38 9 -25 11 -45 5 -54 -5
-8 -9 -12 -9 -9 -1 3 -2 21 -4 41 -2 21 -12 53 -24 73 -26 44 -14 46 33 5z
m200 -44 c23 -35 35 -68 38 -101 3 -27 3 -40 0 -29 -9 46 -38 113 -66 154 -17
24 -25 41 -18 36 7 -4 28 -31 46 -60z m-105 19 c0 -14 4 -23 8 -20 4 2 8 -3 8
-12 0 -9 3 -33 7 -52 4 -19 4 -29 1 -22 -3 6 -11 9 -16 6 -6 -4 -8 -3 -5 3 8
13 -12 84 -30 104 -11 14 -12 18 -1 22 20 7 28 -2 28 -29z m206 25 c3 -6 -2
-18 -12 -27 -14 -14 -16 -14 -6 -1 9 12 9 18 0 27 -9 9 -9 12 -1 12 7 0 15 -5
19 -11z m-439 -31 c-3 -7 -5 -2 -5 12 0 14 2 19 5 13 2 -7 2 -19 0 -25z m-80
-70 c-3 -7 -5 -2 -5 12 0 14 2 19 5 13 2 -7 2 -19 0 -25z m298 12 c3 -6 -1 -7
-9 -4 -18 7 -21 14 -7 14 6 0 13 -4 16 -10z m297 -40 c4 -13 3 -29 -2 -34 -6
-6 -10 -8 -10 -5 0 2 -4 19 -9 36 -7 24 -6 32 2 30 7 -1 15 -13 19 -27z m-362
-118 c0 -13 -4 -20 -10 -17 -5 3 -10 1 -10 -6 0 -7 -3 -9 -6 -6 -4 4 -1 13 5
21 13 15 6 60 -7 52 -4 -2 -7 10 -8 27 l-1 32 18 -40 c10 -22 19 -50 19 -63z
m20 68 c6 -11 8 -20 6 -20 -3 0 -10 9 -16 20 -6 11 -8 20 -6 20 3 0 10 -9 16
-20z m370 -10 c0 -5 -5 -10 -11 -10 -5 0 -7 5 -4 10 3 6 8 10 11 10 2 0 4 -4
4 -10z m-563 -107 c-3 -10 -5 -4 -5 12 0 17 2 24 5 18 2 -7 2 -21 0 -30z m400
5 c-3 -8 -6 -5 -6 6 -1 11 2 17 5 13 3 -3 4 -12 1 -19z m-230 -30 c-3 -7 -5
-2 -5 12 0 14 2 19 5 13 2 -7 2 -19 0 -25z m103 3 c0 -9 -5 -45 -11 -81 -10
-63 -17 -107 -18 -122 -1 -5 -4 -7 -8 -7 -25 4 -41 -3 -45 -19 -4 -12 -21 -23
-47 -30 -37 -9 -44 -8 -61 11 -11 11 -25 35 -31 54 -21 65 43 111 90 64 10
-10 21 -25 23 -32 3 -8 8 -11 12 -8 4 3 2 18 -4 33 -5 15 -10 37 -10 49 0 28
56 91 72 81 7 -5 9 -2 5 8 -3 9 -3 18 0 21 10 10 33 -5 33 -22z m-123 -78 c-3
-10 -5 -4 -5 12 0 17 2 24 5 18 2 -7 2 -21 0 -30z m-176 -103 c15 0 19 -7 19
-39 0 -54 -23 -71 -55 -41 -14 13 -27 32 -31 42 -7 23 14 51 33 43 8 -3 23 -5
34 -5z m-107 -86 c13 -33 7 -54 -16 -54 -24 0 -58 27 -58 46 0 7 12 15 28 17
15 2 30 5 33 6 4 0 10 -6 13 -15z m-214 -19 c0 -14 -7 -28 -15 -32 -20 -7 -23
-4 -29 30 -4 23 -1 27 20 27 19 0 24 -5 24 -25z m-144 -21 c3 -12 3 -28 -1
-34 -10 -17 -45 18 -45 46 0 17 4 21 20 17 11 -3 23 -16 26 -29z m274 11 c0
-33 -25 -42 -51 -19 -19 17 -19 19 -3 31 30 22 54 16 54 -12z m387 -17 c-3 -8
-6 -5 -6 6 -1 11 2 17 5 13 3 -3 4 -12 1 -19z m-17 -68 c0 -5 -5 -10 -11 -10
-5 0 -7 5 -4 10 3 6 8 10 11 10 2 0 4 -4 4 -10z m535 -30 c3 -11 10 -20 15
-20 11 0 50 -73 50 -92 0 -16 -47 40 -56 66 -3 10 -18 29 -33 42 -25 23 -25
23 -4 24 13 0 24 -8 28 -20z m-498 -57 c1 -19 -1 -22 -8 -12 -11 17 -12 39 -1
39 4 0 8 -12 9 -27z m43 -33 c0 -16 -2 -30 -4 -30 -2 0 -6 14 -8 30 -3 17 -1
30 4 30 4 0 8 -13 8 -30z m-213 -197 c-3 -10 -5 -4 -5 12 0 17 2 24 5 18 2 -7
2 -21 0 -30z m-30 -95 c-3 -8 -6 -5 -6 6 -1 11 2 17 5 13 3 -3 4 -12 1 -19z"/>
<path d="M1680 2220 c0 -5 5 -10 11 -10 5 0 7 5 4 10 -3 6 -8 10 -11 10 -2 0
-4 -4 -4 -10z"/>
<path d="M2625 2140 c3 -5 8 -10 11 -10 2 0 4 5 4 10 0 6 -5 10 -11 10 -5 0
-7 -4 -4 -10z"/>
<path d="M1970 2038 c0 -9 5 -20 10 -23 13 -8 13 5 0 25 -8 13 -10 13 -10 -2z"/>
<path d="M2020 1950 c0 -5 7 -10 15 -10 8 0 15 5 15 10 0 6 -7 10 -15 10 -8 0
-15 -4 -15 -10z"/>
<path d="M2040 1920 c0 -5 5 -10 11 -10 5 0 7 5 4 10 -3 6 -8 10 -11 10 -2 0
-4 -4 -4 -10z"/>
<path d="M2125 1820 c-3 -5 -3 -10 2 -10 4 0 2 -4 -5 -8 -9 -6 -6 -12 12 -20
16 -7 28 -8 31 -2 4 6 -2 10 -12 11 -13 0 -12 3 7 11 24 10 24 10 5 18 -27 12
-33 12 -40 0z"/>
<path d="M2228 1813 c7 -3 16 -2 19 1 4 3 -2 6 -13 5 -11 0 -14 -3 -6 -6z"/>
<path d="M2155 1761 c-10 -18 17 -23 33 -7 15 15 15 16 -5 16 -12 0 -24 -4
-28 -9z"/>
<path d="M2235 1710 c3 -5 8 -10 11 -10 2 0 4 5 4 10 0 6 -5 10 -11 10 -5 0
-7 -4 -4 -10z"/>
<path d="M2165 1693 c3 -8 5 -17 5 -19 0 -3 5 -2 10 1 16 10 12 32 -5 32 -10
0 -14 -6 -10 -14z"/>
<path d="M2194 1669 c-3 -5 9 -9 25 -9 17 0 31 2 31 4 0 8 -51 13 -56 5z"/>
<path d="M2140 1530 c0 -6 7 -10 15 -10 8 0 15 2 15 4 0 2 -7 6 -15 10 -8 3
-15 1 -15 -4z"/>
<path d="M2115 1470 c-3 -5 -2 -10 4 -10 5 0 13 5 16 10 3 6 2 10 -4 10 -5 0
-13 -4 -16 -10z"/>
<path d="M2981 1438 c-5 -18 -13 -117 -16 -220 -7 -182 -7 -186 14 -197 l21
-12 0 231 c0 126 -2 230 -4 230 -3 0 -9 -15 -15 -32z"/>
<path d="M2180 1292 c0 -5 7 -15 15 -22 8 -7 15 -8 15 -2 0 5 -7 15 -15 22 -8
7 -15 8 -15 2z"/>
<path d="M2591 1124 c0 -11 3 -14 6 -6 3 7 2 16 -1 19 -3 4 -6 -2 -5 -13z"/>
<path d="M2621 964 c0 -11 3 -14 6 -6 3 7 2 16 -1 19 -3 4 -6 -2 -5 -13z"/>
<path d="M2600 908 c0 -9 5 -20 11 -24 6 -3 17 -20 25 -38 7 -17 13 -24 13
-16 0 8 -11 33 -24 55 -14 23 -25 33 -25 23z"/>
<path d="M2760 871 c5 -11 15 -23 21 -27 6 -3 3 5 -6 20 -20 30 -30 35 -15 7z"/>
<path d="M2661 664 c0 -11 3 -14 6 -6 3 7 2 16 -1 19 -3 4 -6 -2 -5 -13z"/>
<path d="M2587 623 c-4 -3 -7 -16 -6 -27 0 -19 1 -19 10 3 10 24 8 36 -4 24z"/>
<path d="M2776 525 c-18 -28 -20 -35 -7 -35 5 0 14 14 20 30 12 36 9 38 -13 5z"/>
<path d="M2271 464 c0 -11 3 -14 6 -6 3 7 2 16 -1 19 -3 4 -6 -2 -5 -13z"/>
<path d="M2288 383 c7 -3 16 -2 19 1 4 3 -2 6 -13 5 -11 0 -14 -3 -6 -6z"/>
<path d="M2296 355 c4 -8 10 -12 15 -9 14 8 10 24 -6 24 -9 0 -12 -6 -9 -15z"/>
<path d="M2313 307 c0 -12 1 -16 4 -8 5 11 7 11 14 0 5 -8 9 -9 9 -3 0 6 -6
16 -13 22 -10 8 -13 6 -14 -11z"/>
<path d="M2549 213 c-1 -16 -1 -34 0 -41 1 -7 -5 -15 -13 -18 -14 -5 -14 -8 0
-29 12 -18 12 -24 2 -28 -10 -4 -11 -7 0 -18 16 -17 16 -30 -1 -23 -8 3 -13
-6 -15 -26 l-2 -30 140 0 c92 0 139 4 135 10 -3 6 -15 10 -26 10 -11 0 -22 7
-26 16 -5 13 -8 13 -15 2 -9 -13 -7 -2 7 51 7 23 -13 39 -21 17 -5 -12 -9 -11
-25 5 -11 11 -25 17 -31 13 -7 -4 -8 -3 -4 4 4 7 2 12 -3 12 -6 0 -11 5 -11
11 0 6 -11 20 -25 31 -14 11 -25 25 -25 33 0 11 -20 25 -36 25 -2 0 -5 -12 -5
-27z m161 -174 c0 -6 -4 -7 -10 -4 -5 3 -10 11 -10 16 0 6 5 7 10 4 6 -3 10
-11 10 -16z"/>
<path d="M2380 181 c0 -6 4 -13 10 -16 6 -3 7 1 4 9 -7 18 -14 21 -14 7z"/>
<path d="M2310 102 c0 -40 3 -40 17 4 9 24 8 31 -3 31 -9 0 -14 -12 -14 -35z"/>
<path d="M2740 124 c0 -17 22 -14 28 4 2 7 -3 12 -12 12 -9 0 -16 -7 -16 -16z"/>
<path d="M2146 117 c3 -10 9 -15 12 -12 3 3 0 11 -7 18 -10 9 -11 8 -5 -6z"/>
<path d="M2360 121 c0 -6 4 -13 10 -16 6 -3 7 1 4 9 -7 18 -14 21 -14 7z"/>
<path d="M2262 100 c0 -14 2 -19 5 -12 2 6 2 18 0 25 -3 6 -5 1 -5 -13z"/>
<path d="M2214 78 c0 -10 10 -30 23 -46 l22 -27 1 25 c0 43 -11 69 -29 67 -9
0 -17 -9 -17 -19z"/>
<path d="M2341 84 c0 -11 3 -14 6 -6 3 7 2 16 -1 19 -3 4 -6 -2 -5 -13z"/>
<path d="M2277 33 c-4 -3 -7 -13 -7 -22 1 -13 3 -13 11 2 11 19 8 33 -4 20z"/>
</g>
</svg>
