<svg width="10" height="10" viewBox="0 0 10 10" fill="none" xmlns="http://www.w3.org/2000/svg">
<path d="M4.8285 2.33367L5 2.6195L5.1715 2.33367C5.6048 1.6115 6.31514 1.12308 7.15385 1.12308C8.35108 1.12308 9.26154 2.03354 9.26154 3.23077C9.26154 3.84683 9.1776 4.31998 9.01177 4.72894C8.84596 5.13787 8.59333 5.49487 8.23876 5.87277C7.8819 6.25311 7.42893 6.64743 6.86432 7.13603C6.84769 7.15042 6.83097 7.16489 6.81415 7.17944C6.29651 7.62734 5.69227 8.15018 5 8.80168C4.30774 8.15018 3.7035 7.62735 3.18587 7.17946C3.16905 7.1649 3.15232 7.15043 3.13568 7.13603C2.57107 6.64743 2.1181 6.25311 1.76124 5.87277C1.40667 5.49487 1.15404 5.13787 0.988228 4.72894C0.822405 4.31998 0.738462 3.84683 0.738462 3.23077C0.738462 2.03354 1.64892 1.12308 2.84615 1.12308C3.68486 1.12308 4.3952 1.6115 4.8285 2.33367Z" fill="white" stroke="#FF0000" stroke-width="0.4"/>
</svg>
