<svg width="108" height="30" viewBox="0 0 108 30" fill="none" xmlns="http://www.w3.org/2000/svg">
<g clip-path="url(#clip0_2_3)">
<path d="M7.002 24.236C6.60333 24.236 6.17867 24.158 5.728 24.002C5.29467 23.846 4.93067 23.5253 4.636 23.04C4.34133 22.5547 4.194 21.8267 4.194 20.856C4.194 20.18 4.272 19.5127 4.428 18.854C4.584 18.178 4.80933 17.6147 5.104 17.164C5.416 16.7133 5.77133 16.488 6.17 16.488C6.378 16.488 6.62067 16.5573 6.898 16.696C6.586 17.4933 6.352 18.2387 6.196 18.932C6.04 19.6253 5.962 20.2667 5.962 20.856C5.962 21.636 6.10067 22.2427 6.378 22.676C6.65533 23.1093 7.06267 23.326 7.6 23.326C8.05067 23.326 8.44933 23.1353 8.796 22.754C9.16 22.3727 9.53267 21.6533 9.914 20.596C10.1913 19.8333 10.4773 18.9147 10.772 17.84C11.084 16.748 11.3873 15.5867 11.682 14.356C11.994 13.108 12.2887 11.8773 12.566 10.664C12.8433 9.43333 13.0947 8.298 13.32 7.258C13.5453 6.218 13.7187 5.35133 13.84 4.658C12.9907 4.658 12.2713 4.67533 11.682 4.71C11.11 4.74467 10.59 4.79667 10.122 4.866C9.654 4.93533 9.14267 5.03933 8.588 5.178C8.67467 4.58867 9.04733 4.138 9.706 3.826C10.382 3.49667 11.422 3.332 12.826 3.332C13.5193 3.332 14.2213 3.36667 14.932 3.436C15.6427 3.50533 16.2927 3.58333 16.882 3.67C17.4887 3.73933 17.948 3.80867 18.26 3.878C18.0693 4.20733 17.7573 4.41533 17.324 4.502C16.8907 4.58867 16.5353 4.632 16.258 4.632C15.9113 4.632 15.582 4.64067 15.27 4.658C14.9753 4.658 14.6893 4.658 14.412 4.658C14.6027 4.79667 14.7413 4.98733 14.828 5.23C14.9147 5.47267 14.958 5.68933 14.958 5.88C14.958 6.10533 14.8973 6.608 14.776 7.388C14.6547 8.15067 14.4813 9.078 14.256 10.17C14.0307 11.262 13.762 12.4233 13.45 13.654C13.138 14.8847 12.8 16.0893 12.436 17.268C12.072 18.4467 11.682 19.4953 11.266 20.414C10.8153 21.454 10.356 22.2427 9.888 22.78C9.43733 23.3347 8.96933 23.716 8.484 23.924C8.016 24.132 7.522 24.236 7.002 24.236ZM17.7103 23.144C16.653 23.144 15.8557 22.8493 15.3183 22.26C14.7983 21.688 14.5383 20.9773 14.5383 20.128C14.5383 19.348 14.729 18.5247 15.1103 17.658C15.509 16.7913 16.029 15.9767 16.6703 15.214C17.329 14.4513 18.0483 13.836 18.8283 13.368C19.6083 12.8827 20.3797 12.64 21.1423 12.64C21.541 12.64 21.905 12.744 22.2343 12.952C22.581 13.16 22.7543 13.5847 22.7543 14.226C22.7543 14.8847 22.555 15.5087 22.1563 16.098C21.775 16.67 21.2637 17.1813 20.6223 17.632C19.9983 18.0827 19.305 18.4553 18.5423 18.75C17.797 19.0273 17.0517 19.2007 16.3063 19.27C16.2717 19.4433 16.2457 19.608 16.2283 19.764C16.211 19.92 16.2023 20.0673 16.2023 20.206C16.2023 20.466 16.2283 20.726 16.2803 20.986C16.3497 21.246 16.4623 21.4887 16.6183 21.714C16.7743 21.922 16.9823 22.0867 17.2423 22.208C17.5197 22.3293 17.8577 22.39 18.2563 22.39C19.0017 22.39 19.7383 22.182 20.4663 21.766C21.1943 21.3327 21.8703 20.7693 22.4943 20.076C23.1183 19.3827 23.647 18.62 24.0803 17.788L24.3923 18.022C23.9243 19.062 23.3263 19.9633 22.5983 20.726C21.8877 21.4887 21.1077 22.078 20.2583 22.494C19.4263 22.9273 18.577 23.144 17.7103 23.144ZM16.4363 18.776C16.9043 18.62 17.433 18.3947 18.0223 18.1C18.6117 17.788 19.175 17.424 19.7123 17.008C20.267 16.592 20.7177 16.1327 21.0643 15.63C21.4283 15.1273 21.6103 14.5987 21.6103 14.044C21.6103 13.8533 21.5757 13.706 21.5063 13.602C21.437 13.498 21.2897 13.446 21.0643 13.446C20.6483 13.446 20.2063 13.6107 19.7383 13.94C19.2703 14.252 18.8197 14.668 18.3863 15.188C17.953 15.708 17.563 16.28 17.2163 16.904C16.8697 17.528 16.6097 18.152 16.4363 18.776ZM26.2905 23.326C25.4759 23.326 24.8259 23.144 24.3405 22.78C23.8725 22.4333 23.5432 22 23.3525 21.48C23.1445 20.96 23.0405 20.44 23.0405 19.92C23.0405 19.4 23.1099 19.0013 23.2485 18.724C23.3872 18.4467 23.5519 18.2387 23.7425 18.1C23.9505 17.9613 24.1412 17.8573 24.3145 17.788C24.5052 17.7187 24.6352 17.6493 24.7045 17.58C25.2245 17.008 25.7012 16.41 26.1345 15.786C26.5679 15.162 26.9492 14.5033 27.2785 13.81V13.498C27.2785 12.8567 27.3825 12.406 27.5905 12.146C27.8159 11.8687 28.0499 11.73 28.2925 11.73C28.4312 11.73 28.5352 11.7647 28.6045 11.834C28.6739 11.9033 28.7085 11.9813 28.7085 12.068C28.7085 12.1547 28.6825 12.2933 28.6305 12.484C28.5785 12.6747 28.5525 12.9173 28.5525 13.212C28.5525 13.784 28.6652 14.408 28.8905 15.084C29.1159 15.7427 29.3412 16.4447 29.5665 17.19C29.7919 17.918 29.9045 18.6807 29.9045 19.478C29.9045 19.7033 29.8872 19.9287 29.8525 20.154C29.8352 20.362 29.8005 20.5613 29.7485 20.752C30.3552 20.648 30.9272 20.3793 31.4645 19.946C32.0019 19.4953 32.5219 18.7847 33.0245 17.814L33.2585 18.074C32.9292 19.0273 32.4352 19.7553 31.7765 20.258C31.1179 20.7433 30.3985 21.0467 29.6185 21.168C29.3412 21.9133 28.8992 22.4593 28.2925 22.806C27.7032 23.1527 27.0359 23.326 26.2905 23.326ZM26.3425 22.416C26.5505 22.416 26.8279 22.3467 27.1745 22.208C27.5212 22.0693 27.7899 21.714 27.9805 21.142C27.2525 21.0033 26.6025 20.7173 26.0305 20.284C25.4759 19.8507 25.0599 19.4173 24.7825 18.984C24.4012 19.0013 24.2105 19.3047 24.2105 19.894C24.2105 20.518 24.3925 21.0987 24.7565 21.636C25.1379 22.156 25.6665 22.416 26.3425 22.416ZM28.1105 20.726C28.1452 20.5527 28.1712 20.3707 28.1885 20.18C28.2059 19.9893 28.2145 19.764 28.2145 19.504C28.2145 18.6893 28.1105 17.8833 27.9025 17.086C27.7119 16.2713 27.5472 15.5087 27.4085 14.798C27.0099 15.4567 26.5852 16.0893 26.1345 16.696C25.7012 17.2853 25.2852 17.7793 24.8865 18.178C25.1465 18.7327 25.5452 19.2527 26.0825 19.738C26.6372 20.2233 27.3132 20.5527 28.1105 20.726ZM35.2534 23.326C34.4388 23.326 33.7888 23.144 33.3034 22.78C32.8354 22.4333 32.5061 22 32.3154 21.48C32.1074 20.96 32.0034 20.44 32.0034 19.92C32.0034 19.4 32.0728 19.0013 32.2114 18.724C32.3501 18.4467 32.5148 18.2387 32.7054 18.1C32.9134 17.9613 33.1041 17.8573 33.2774 17.788C33.4681 17.7187 33.5981 17.6493 33.6674 17.58C34.1874 17.008 34.6641 16.41 35.0974 15.786C35.5308 15.162 35.9121 14.5033 36.2414 13.81V13.498C36.2414 12.8567 36.3454 12.406 36.5534 12.146C36.7788 11.8687 37.0128 11.73 37.2554 11.73C37.3941 11.73 37.4981 11.7647 37.5674 11.834C37.6368 11.9033 37.6714 11.9813 37.6714 12.068C37.6714 12.1547 37.6454 12.2933 37.5934 12.484C37.5414 12.6747 37.5154 12.9173 37.5154 13.212C37.5154 13.784 37.6281 14.408 37.8534 15.084C38.0788 15.7427 38.3041 16.4447 38.5294 17.19C38.7548 17.918 38.8674 18.6807 38.8674 19.478C38.8674 19.7033 38.8501 19.9287 38.8154 20.154C38.7981 20.362 38.7634 20.5613 38.7114 20.752C39.3181 20.648 39.8901 20.3793 40.4274 19.946C40.9648 19.4953 41.4848 18.7847 41.9874 17.814L42.2214 18.074C41.8921 19.0273 41.3981 19.7553 40.7394 20.258C40.0808 20.7433 39.3614 21.0467 38.5814 21.168C38.3041 21.9133 37.8621 22.4593 37.2554 22.806C36.6661 23.1527 35.9988 23.326 35.2534 23.326ZM35.3054 22.416C35.5134 22.416 35.7908 22.3467 36.1374 22.208C36.4841 22.0693 36.7528 21.714 36.9434 21.142C36.2154 21.0033 35.5654 20.7173 34.9934 20.284C34.4388 19.8507 34.0228 19.4173 33.7454 18.984C33.3641 19.0013 33.1734 19.3047 33.1734 19.894C33.1734 20.518 33.3554 21.0987 33.7194 21.636C34.1008 22.156 34.6294 22.416 35.3054 22.416ZM37.0734 20.726C37.1081 20.5527 37.1341 20.3707 37.1514 20.18C37.1688 19.9893 37.1774 19.764 37.1774 19.504C37.1774 18.6893 37.0734 17.8833 36.8654 17.086C36.6748 16.2713 36.5101 15.5087 36.3714 14.798C35.9728 15.4567 35.5481 16.0893 35.0974 16.696C34.6641 17.2853 34.2481 17.7793 33.8494 18.178C34.1094 18.7327 34.5081 19.2527 35.0454 19.738C35.6001 20.2233 36.2761 20.5527 37.0734 20.726ZM43.3583 22.676C42.6823 22.676 42.1797 22.4593 41.8503 22.026C41.521 21.61 41.3563 21.0987 41.3563 20.492C41.3563 20.0933 41.4257 19.5907 41.5643 18.984C41.7203 18.3773 41.9197 17.7447 42.1623 17.086C42.405 16.41 42.6823 15.7773 42.9943 15.188C43.3237 14.5987 43.6703 14.122 44.0343 13.758C44.3983 13.3767 44.7537 13.186 45.1003 13.186C45.2563 13.186 45.3863 13.238 45.4903 13.342C45.6117 13.4287 45.6723 13.5673 45.6723 13.758C45.6723 13.966 45.5337 14.304 45.2563 14.772C44.9963 15.24 44.6843 15.7773 44.3203 16.384C43.9563 16.9907 43.6357 17.632 43.3583 18.308C43.0983 18.9667 42.9683 19.5993 42.9683 20.206C42.9683 20.83 43.0723 21.246 43.2803 21.454C43.4883 21.662 43.809 21.766 44.2423 21.766C44.8317 21.766 45.4557 21.4713 46.1143 20.882C46.7903 20.2927 47.501 19.2613 48.2463 17.788L48.4803 18.048C47.9777 19.5387 47.2497 20.6827 46.2963 21.48C45.3603 22.2773 44.381 22.676 43.3583 22.676ZM46.4783 10.768C46.201 10.768 45.9497 10.6987 45.7243 10.56C45.5163 10.4213 45.4123 10.2047 45.4123 9.91C45.4123 9.546 45.6203 9.234 46.0363 8.974C46.4697 8.69667 46.8943 8.558 47.3103 8.558C47.5703 8.558 47.7783 8.61867 47.9343 8.74C48.0903 8.86133 48.1683 9.06933 48.1683 9.364C48.1683 9.69333 47.9863 10.014 47.6223 10.326C47.2757 10.6207 46.8943 10.768 46.4783 10.768ZM50.5658 23.144C49.5085 23.144 48.7111 22.8493 48.1738 22.26C47.6538 21.688 47.3938 20.9773 47.3938 20.128C47.3938 19.348 47.5845 18.5247 47.9658 17.658C48.3645 16.7913 48.8845 15.9767 49.5258 15.214C50.1845 14.4513 50.9038 13.836 51.6838 13.368C52.4638 12.8827 53.2351 12.64 53.9978 12.64C54.3965 12.64 54.7605 12.744 55.0898 12.952C55.4365 13.16 55.6098 13.5847 55.6098 14.226C55.6098 14.8847 55.4105 15.5087 55.0118 16.098C54.6305 16.67 54.1191 17.1813 53.4778 17.632C52.8538 18.0827 52.1605 18.4553 51.3978 18.75C50.6525 19.0273 49.9071 19.2007 49.1618 19.27C49.1271 19.4433 49.1011 19.608 49.0838 19.764C49.0665 19.92 49.0578 20.0673 49.0578 20.206C49.0578 20.466 49.0838 20.726 49.1358 20.986C49.2051 21.246 49.3178 21.4887 49.4738 21.714C49.6298 21.922 49.8378 22.0867 50.0978 22.208C50.3751 22.3293 50.7131 22.39 51.1118 22.39C51.8571 22.39 52.5938 22.182 53.3218 21.766C54.0498 21.3327 54.7258 20.7693 55.3498 20.076C55.9738 19.3827 56.5025 18.62 56.9358 17.788L57.2478 18.022C56.7798 19.062 56.1818 19.9633 55.4538 20.726C54.7431 21.4887 53.9631 22.078 53.1138 22.494C52.2818 22.9273 51.4325 23.144 50.5658 23.144ZM49.2918 18.776C49.7598 18.62 50.2885 18.3947 50.8778 18.1C51.4671 17.788 52.0305 17.424 52.5678 17.008C53.1225 16.592 53.5731 16.1327 53.9198 15.63C54.2838 15.1273 54.4658 14.5987 54.4658 14.044C54.4658 13.8533 54.4311 13.706 54.3618 13.602C54.2925 13.498 54.1451 13.446 53.9198 13.446C53.5038 13.446 53.0618 13.6107 52.5938 13.94C52.1258 14.252 51.6751 14.668 51.2418 15.188C50.8085 15.708 50.4185 16.28 50.0718 16.904C49.7251 17.528 49.4651 18.152 49.2918 18.776ZM57.404 29.28C57.0227 29.28 56.676 29.1587 56.364 28.916C56.052 28.6907 55.896 28.3093 55.896 27.772C55.896 27.252 56.0607 26.7667 56.39 26.316C56.702 25.8827 57.1093 25.4753 57.612 25.094C58.1147 24.73 58.6607 24.392 59.25 24.08C59.8567 23.768 60.4287 23.4733 60.966 23.196C61.2087 22.5893 61.434 21.9393 61.642 21.246C61.8673 20.5353 62.084 19.7553 62.292 18.906C61.6333 19.8593 60.94 20.6567 60.212 21.298C59.5013 21.922 58.782 22.234 58.054 22.234C57.43 22.234 56.9447 22 56.598 21.532C56.2687 21.064 56.104 20.4573 56.104 19.712C56.104 18.8107 56.3207 17.9527 56.754 17.138C57.2047 16.3233 57.7853 15.604 58.496 14.98C59.2067 14.356 59.9607 13.8707 60.758 13.524C61.5553 13.16 62.3007 12.978 62.994 12.978C63.4967 12.978 63.852 13.0647 64.06 13.238C64.2853 13.394 64.398 13.5847 64.398 13.81C64.398 13.966 64.3547 14.0873 64.268 14.174C64.1813 14.2607 64.1207 14.3127 64.086 14.33C63.9993 14.1913 63.8693 14.096 63.696 14.044C63.5227 13.9747 63.306 13.94 63.046 13.94C62.37 13.94 61.7113 14.1393 61.07 14.538C60.446 14.9367 59.8913 15.448 59.406 16.072C58.9207 16.696 58.5307 17.346 58.236 18.022C57.9587 18.6807 57.82 19.2873 57.82 19.842C57.82 20.258 57.898 20.5787 58.054 20.804C58.2273 21.012 58.4527 21.116 58.73 21.116C59.2327 21.116 59.8307 20.7867 60.524 20.128C61.2347 19.452 61.9193 18.6373 62.578 17.684C62.63 17.4413 62.6733 17.2247 62.708 17.034C62.76 16.8433 62.8207 16.6007 62.89 16.306C62.942 16.0633 63.0633 15.786 63.254 15.474C63.462 15.1447 63.7827 14.98 64.216 14.98C64.3027 14.98 64.3893 14.9887 64.476 15.006C64.5627 15.006 64.658 15.0233 64.762 15.058C64.762 15.3353 64.6753 15.8467 64.502 16.592C64.346 17.32 64.112 18.178 63.8 19.166C63.5053 20.1367 63.1587 21.142 62.76 22.182C63.332 21.9047 63.8867 21.5493 64.424 21.116C64.9787 20.6827 65.4813 20.1887 65.932 19.634C66.3827 19.062 66.738 18.4467 66.998 17.788L67.336 18.048C67.076 18.828 66.66 19.5387 66.088 20.18C65.516 20.8213 64.9007 21.376 64.242 21.844C63.6007 22.312 63.0113 22.676 62.474 22.936C61.9887 24.0973 61.4773 25.1547 60.94 26.108C60.4027 27.0787 59.8393 27.85 59.25 28.422C58.678 28.994 58.0627 29.28 57.404 29.28ZM57.326 28.448C57.6727 28.448 58.1407 28.1013 58.73 27.408C59.3367 26.732 59.9867 25.562 60.68 23.898C59.9867 24.2447 59.3367 24.6 58.73 24.964C58.1407 25.3453 57.6553 25.744 57.274 26.16C56.8927 26.576 56.702 27.0353 56.702 27.538C56.702 27.8153 56.7627 28.032 56.884 28.188C57.0053 28.3613 57.1527 28.448 57.326 28.448ZM71.0195 22.676C70.4302 22.676 69.9622 22.52 69.6155 22.208C69.2862 21.896 69.1215 21.4887 69.1215 20.986C69.1215 20.466 69.2428 19.92 69.4855 19.348C69.7282 18.776 69.9622 18.2127 70.1875 17.658C70.4302 17.086 70.5515 16.5747 70.5515 16.124C70.5515 15.5693 70.3868 15.162 70.0575 14.902C69.7455 14.6247 69.4248 14.3733 69.0955 14.148C68.6968 15.1707 68.2808 16.1413 67.8475 17.06C67.4142 17.9787 67.0588 18.672 66.7815 19.14L66.5475 18.698C66.7902 18.2473 67.1022 17.5887 67.4835 16.722C67.8822 15.8553 68.2722 14.8673 68.6535 13.758C68.4802 13.5847 68.3935 13.3767 68.3935 13.134C68.3935 12.614 68.5408 12.1893 68.8355 11.86C69.1302 11.5307 69.3468 11.366 69.4855 11.366C69.6762 11.366 69.7802 11.4527 69.7975 11.626C69.8322 11.782 69.8495 11.9033 69.8495 11.99C69.8495 12.0767 69.7975 12.25 69.6935 12.51C69.6068 12.7527 69.5635 12.9 69.5635 12.952C69.5635 13.1947 69.6935 13.42 69.9535 13.628C70.2308 13.8187 70.5428 14.044 70.8895 14.304C71.2362 14.5467 71.5395 14.85 71.7995 15.214C72.0768 15.5607 72.2155 16.0113 72.2155 16.566C72.2155 17.086 72.1028 17.6147 71.8775 18.152C71.6695 18.6893 71.4528 19.2007 71.2275 19.686C71.0195 20.1713 70.9155 20.596 70.9155 20.96C70.9155 21.272 70.9935 21.48 71.1495 21.584C71.3055 21.688 71.4875 21.74 71.6955 21.74C72.1115 21.74 72.5362 21.61 72.9695 21.35C73.4202 21.09 73.8535 20.7607 74.2695 20.362C74.6855 19.9633 75.0582 19.5473 75.3875 19.114C75.7168 18.6633 75.9595 18.2473 76.1155 17.866L76.4535 18.126C76.1242 18.854 75.6735 19.5733 75.1015 20.284C74.5295 20.9773 73.8882 21.5493 73.1775 22C72.4842 22.4507 71.7648 22.676 71.0195 22.676ZM76.8085 23.222C76.2712 23.222 75.8205 23.04 75.4565 22.676C75.0752 22.3293 74.8845 21.792 74.8845 21.064C74.8845 20.44 75.0232 19.7727 75.3005 19.062C75.5779 18.334 75.9592 17.6233 76.4445 16.93C76.9299 16.2193 77.4759 15.578 78.0825 15.006C78.7065 14.4167 79.3565 13.9487 80.0325 13.602C80.7259 13.2553 81.4105 13.082 82.0865 13.082C82.7625 13.082 83.3259 13.264 83.7765 13.628C84.2272 13.9747 84.4525 14.4427 84.4525 15.032C84.4525 15.4653 84.3312 15.76 84.0885 15.916C83.8632 16.072 83.5599 16.15 83.1785 16.15C83.2132 16.0113 83.2392 15.864 83.2565 15.708C83.2912 15.5347 83.3085 15.3787 83.3085 15.24C83.3085 14.8413 83.2132 14.5033 83.0225 14.226C82.8319 13.9313 82.5025 13.784 82.0345 13.784C81.5492 13.784 81.0552 13.9573 80.5525 14.304C80.0499 14.6333 79.5645 15.084 79.0965 15.656C78.6285 16.2107 78.2125 16.8173 77.8485 17.476C77.4845 18.1347 77.1985 18.7847 76.9905 19.426C76.7825 20.0673 76.6785 20.6393 76.6785 21.142C76.6785 21.818 76.9125 22.156 77.3805 22.156C77.7792 22.156 78.2125 21.974 78.6805 21.61C79.1485 21.2287 79.6252 20.752 80.1105 20.18C80.6132 19.5907 81.0899 18.984 81.5405 18.36C81.9912 17.736 82.3899 17.164 82.7365 16.644C82.8059 16.54 82.8492 16.488 82.8665 16.488C82.9705 16.5053 83.1005 16.54 83.2565 16.592C83.4299 16.644 83.5772 16.7133 83.6985 16.8C83.8199 16.8867 83.8805 16.9993 83.8805 17.138C83.8805 17.294 83.8025 17.5107 83.6465 17.788C83.4905 18.048 83.3172 18.3513 83.1265 18.698C82.9359 19.0447 82.7625 19.4 82.6065 19.764C82.4505 20.1107 82.3725 20.44 82.3725 20.752C82.3725 21.012 82.4419 21.272 82.5805 21.532C82.7192 21.7747 82.9445 21.896 83.2565 21.896C83.7245 21.896 84.3399 21.558 85.1025 20.882C85.8652 20.1887 86.6365 19.1573 87.4165 17.788L87.6765 18.048C87.3125 18.984 86.8445 19.8073 86.2725 20.518C85.7005 21.2287 85.0852 21.7833 84.4265 22.182C83.7852 22.5807 83.1525 22.78 82.5285 22.78C81.8872 22.78 81.4105 22.5893 81.0985 22.208C80.8039 21.8267 80.6565 21.4107 80.6565 20.96C80.6565 20.856 80.6652 20.7433 80.6825 20.622C80.6999 20.4833 80.7172 20.3447 80.7345 20.206C79.9892 21.2113 79.3045 21.9653 78.6805 22.468C78.0739 22.9707 77.4499 23.222 76.8085 23.222ZM99.9888 22.806C99.3821 22.806 98.9401 22.6153 98.6628 22.234C98.3854 21.87 98.2468 21.428 98.2468 20.908C98.2468 20.4747 98.3074 20.0413 98.4288 19.608C98.5674 19.1747 98.6974 18.75 98.8188 18.334C98.9574 17.918 99.0268 17.5453 99.0268 17.216C99.0268 16.8693 98.9488 16.6267 98.7928 16.488C98.6368 16.3493 98.4634 16.28 98.2728 16.28C97.8394 16.28 97.3628 16.618 96.8428 17.294C96.3401 17.97 95.6814 18.9233 94.8668 20.154C94.5894 20.57 94.3554 20.9947 94.1648 21.428C93.9741 21.844 93.7921 22.2253 93.6188 22.572C93.4801 22.572 93.3068 22.5547 93.0988 22.52C92.8908 22.4853 92.7001 22.4247 92.5268 22.338C92.3708 22.2687 92.2928 22.1733 92.2928 22.052C92.2928 21.9307 92.3708 21.6447 92.5268 21.194C92.7001 20.726 92.8908 20.1887 93.0988 19.582C93.3241 18.958 93.5148 18.334 93.6708 17.71C93.8441 17.0687 93.9308 16.5227 93.9308 16.072C93.9308 15.7773 93.8788 15.5433 93.7748 15.37C93.6881 15.1793 93.5234 15.084 93.2808 15.084C92.8994 15.084 92.4401 15.318 91.9028 15.786C91.3654 16.2367 90.8108 16.8347 90.2388 17.58C89.6668 18.3253 89.1208 19.1487 88.6008 20.05C88.0981 20.934 87.6908 21.818 87.3788 22.702C87.2228 22.702 87.0321 22.676 86.8068 22.624C86.5814 22.572 86.3908 22.5027 86.2348 22.416C86.0614 22.3293 85.9748 22.2427 85.9748 22.156C85.9748 22.052 86.0701 21.7487 86.2608 21.246C86.4341 20.726 86.6421 20.1107 86.8848 19.4C87.1101 18.672 87.3094 17.9353 87.4828 17.19C87.6734 16.4447 87.7688 15.786 87.7688 15.214C87.8728 15.0927 88.0374 14.9713 88.2628 14.85C88.4881 14.7287 88.7221 14.668 88.9648 14.668C89.2074 14.668 89.3808 14.7287 89.4848 14.85C89.6061 14.9713 89.6668 15.136 89.6668 15.344C89.6668 15.5693 89.5974 15.9593 89.4588 16.514C89.3374 17.0513 89.1814 17.6493 88.9908 18.308C89.3374 17.7533 89.7274 17.19 90.1608 16.618C90.6114 16.0287 91.0794 15.4913 91.5648 15.006C92.0501 14.5207 92.5354 14.1307 93.0208 13.836C93.5234 13.524 94.0088 13.368 94.4768 13.368C95.0141 13.368 95.3781 13.5673 95.5688 13.966C95.7768 14.3473 95.8808 14.8067 95.8808 15.344C95.8808 15.7773 95.8288 16.2367 95.7248 16.722C95.6381 17.19 95.5341 17.632 95.4128 18.048C95.2914 18.4467 95.1788 18.7673 95.0748 19.01C95.4388 18.3513 95.8374 17.7187 96.2708 17.112C96.7214 16.488 97.2068 15.9853 97.7268 15.604C98.2468 15.2053 98.8014 15.006 99.3908 15.006C99.9454 15.006 100.327 15.1707 100.535 15.5C100.76 15.8293 100.873 16.2193 100.873 16.67C100.873 17.1207 100.795 17.6147 100.639 18.152C100.483 18.6893 100.318 19.2093 100.145 19.712C99.9888 20.2147 99.9108 20.648 99.9108 21.012C99.9108 21.2373 99.9628 21.4453 100.067 21.636C100.188 21.8093 100.396 21.896 100.691 21.896C101.176 21.896 101.627 21.6793 102.043 21.246C102.476 20.7953 102.875 20.258 103.239 19.634C103.603 18.9927 103.915 18.3773 104.175 17.788L104.487 18.152C104.209 18.88 103.854 19.608 103.421 20.336C102.987 21.0467 102.476 21.636 101.887 22.104C101.315 22.572 100.682 22.806 99.9888 22.806Z" fill="white"/>
</g>
<defs>
<clipPath id="clip0_2_3">
<rect width="108" height="30" fill="white"/>
</clipPath>
</defs>
</svg>
